# xmcd
#
# Track frame offsets:
#	150
#	4730
#	22175
#	41667
#	64930
#	84162
#	102060
#
# Disc length: 1721 seconds
#
# Revision: 1
# Processed by: cddbd v1.5PL3 Copyright (c) Steve Scherf et al.
# Submitted via: CDex 1.50Beta5
#
DISCID=4d06b707
DTITLE=TWILIGHT KIDS - Common Style
DYEAR=1992
DGENRE=Pop
TTITLE0=Over ture
TTITLE1=Dear my friend
TTITLE2=夜の太陽
TTITLE3=君のいないステーション
TTITLE4=遊びじゃない
TTITLE5=少し愛せない
TTITLE6=やすらぎ
EXTD=
EXTT0=
EXTT1=
EXTT2=
EXTT3=
EXTT4=
EXTT5=
EXTT6=
PLAYORDER=
